HIERARCHY
ROOT Hips
{
 OFFSET 0.000000 0.000000 0.000000
 CHANNELS 6 Xposition Yposition Zposition Yrotation Xrotation Zrotation
 JOINT Chest
 {
  OFFSET 0.000000 9.585900 0.002600
  CHANNELS 3 Yrotation Xrotation Zrotation
  JOINT Chest2
  {
   OFFSET 0.000000 9.601200 -0.005300
   CHANNELS 3 Yrotation Xrotation Zrotation
   JOINT Chest3
   {
    OFFSET 0.000000 9.561800 0.000000
    CHANNELS 3 Yrotation Xrotation Zrotation
    JOINT Chest4
    {
     OFFSET 0.000000 9.552100 0.000000
     CHANNELS 3 Yrotation Xrotation Zrotation
     JOINT Neck
     {
      OFFSET 0.000000 14.453000 0.000000
      CHANNELS 3 Yrotation Xrotation Zrotation
      JOINT Head
      {
       OFFSET 0.000000 8.936500 -0.011300
       CHANNELS 3 Yrotation Xrotation Zrotation
       End Site
       {
        OFFSET 0.000000 17.073600 -0.006000
       }
      }
     }
     JOINT RightCollar
     {
      OFFSET -2.921100 9.558500 0.000000
      CHANNELS 3 Yrotation Xrotation Zrotation
      JOINT RightShoulder
      {
       OFFSET -13.519700 0.000000 0.000000
       CHANNELS 3 Yrotation Xrotation Zrotation
       JOINT RightElbow
       {
        OFFSET 0.000000 -29.696600 0.000000
        CHANNELS 3 Yrotation Xrotation Zrotation
        JOINT RightWrist
        {
         OFFSET 0.000000 -24.004700 0.000000
         CHANNELS 3 Yrotation Xrotation Zrotation
         End Site
         {
          OFFSET 0.000000 -17.728500 0.000000
         }
        }
       }
      }
     }
     JOINT LeftCollar
     {
      OFFSET 2.921100 9.558500 0.000000
      CHANNELS 3 Yrotation Xrotation Zrotation
      JOINT LeftShoulder
      {
       OFFSET 13.519700 0.000000 0.000000
       CHANNELS 3 Yrotation Xrotation Zrotation
       JOINT LeftElbow
       {
        OFFSET 0.000000 -29.696600 0.000000
        CHANNELS 3 Yrotation Xrotation Zrotation
        JOINT LeftWrist
        {
         OFFSET 0.000000 -24.004700 0.000000
         CHANNELS 3 Yrotation Xrotation Zrotation
         End Site
         {
          OFFSET 0.000000 -17.728500 0.000000
         }
        }
       }
      }
     }
    }
   }
  }
 }
 JOINT RightHip
 {
  OFFSET -7.771700 -0.012900 -0.001300
  CHANNELS 3 Yrotation Xrotation Zrotation
  JOINT RightKnee
  {
   OFFSET 0.000000 -40.869800 0.001200
   CHANNELS 3 Yrotation Xrotation Zrotation
   JOINT RightAnkle
   {
    OFFSET 0.000000 -39.717900 0.002100
    CHANNELS 3 Yrotation Xrotation Zrotation
    JOINT RightToe
    {
     OFFSET 0.000000 -4.965400 11.033500
     CHANNELS 3 Yrotation Xrotation Zrotation
     End Site
     {
      OFFSET 0.000000 -1.423100 5.872300
     }
    }
   }
  }
 }
 JOINT LeftHip
 {
  OFFSET 7.771700 -0.012900 -0.001300
  CHANNELS 3 Yrotation Xrotation Zrotation
  JOINT LeftKnee
  {
   OFFSET 0.000000 -40.869800 0.001200
   CHANNELS 3 Yrotation Xrotation Zrotation
   JOINT LeftAnkle
   {
    OFFSET 0.000000 -39.717900 0.002100
    CHANNELS 3 Yrotation Xrotation Zrotation
    JOINT LeftToe
    {
     OFFSET 0.000000 -4.965400 11.033500
     CHANNELS 3 Yrotation Xrotation Zrotation
     End Site
     {
      OFFSET 0.000000 -1.423100 5.872300
     }
    }
   }
  }
 }
}
MOTION
Frames: 14
Frame Time: 0.008333
-5.637893 50.724659 29.386072 176.146149 -32.283879 -9.196687 0.908552 12.358600 3.613734 0.379099 7.132568 2.000729 0.474241 8.952539 2.519920 0.418414 7.095175 1.987744 4.868171 20.020669 0.579281 5.104596 -4.345356 -0.446039 0.149987 0.972015 -2.360316 -12.627259 -9.400477 6.102989 -28.439648 -70.500465 40.447366 7.236281 -3.791787 -11.571889 -9.319921 3.335618 -2.708228 5.628703 -1.816879 -3.443207 -82.087437 -75.568479 88.390208 12.915761 -12.683965 -1.836859 -11.626139 -33.556575 7.038729 27.340214 82.931029 24.585037 -0.454257 -10.535666 0.381307 0.049821 -4.270116 -0.499942 -15.473180 -47.192357 14.882512 168.972767 76.504576 165.761034 0.573033 -19.912565 -2.193520 0.001479 -0.013409 -0.035795
-5.632427 50.712260 29.390951 176.112445 -32.224066 -9.185348 0.871916 12.389278 3.589924 0.401736 7.088030 2.012608 0.476214 8.946930 2.525928 0.419024 7.091633 1.993148 4.883382 20.051797 0.616519 5.135274 -4.370767 -0.484997 0.166958 0.952877 -2.374190 -12.657433 -9.357076 6.133559 -28.426876 -70.430022 40.428258 7.265886 -3.817065 -11.612935 -9.337944 3.334289 -2.705615 5.661072 -1.843117 -3.425194 -82.071120 -75.601939 88.393717 12.891270 -12.684140 -1.848777 -11.584820 -33.466918 6.921950 26.421673 82.945424 23.697474 -0.238397 -11.005354 0.818749 0.015114 -3.148433 -0.749816 -15.478674 -47.266682 14.909843 168.865990 76.487698 165.685088 0.553175 -19.905733 -2.212222 0.011857 -0.012492 -0.032654
-5.628986 50.702115 29.393480 176.105041 -32.175898 -9.171747 0.839708 12.410542 3.562495 0.402871 7.066642 2.019222 0.489668 8.921461 2.528246 0.352960 7.134331 2.022097 4.942677 20.038942 0.609678 5.152736 -4.397901 -0.526938 0.230410 0.906124 -2.411588 -12.679371 -9.312778 6.164580 -28.359175 -70.382633 40.345371 7.293263 -3.843128 -11.649980 -9.314957 3.296283 -2.725779 5.694815 -1.859081 -3.410682 -82.070594 -75.580672 88.402122 12.933794 -12.692644 -1.834464 -11.615851 -33.363179 6.765718 25.717299 82.988772 23.023013 -0.011119 -11.533019 1.137790 -0.020286 -2.231020 -0.888444 -15.479200 -47.328127 14.913115 168.830170 76.478570 165.667561 0.542494 -19.898331 -2.216281 0.014406 -0.011397 -0.030383
-5.624194 50.695021 29.394187 176.124699 -32.141785 -9.172797 0.802652 12.420808 3.544855 0.362011 7.122589 2.018785 0.528100 8.848056 2.528075 0.334720 7.143845 2.033972 4.968023 20.045672 0.620879 5.176577 -4.389340 -0.521085 0.218371 0.903854 -2.414399 -12.665375 -9.287613 6.186120 -28.256199 -70.371714 40.236261 7.304965 -3.853475 -11.695074 -9.338824 3.286413 -2.733123 5.705567 -1.851416 -3.361421 -82.179198 -75.543727 88.536290 12.994808 -12.719554 -1.807489 -11.732664 -33.237698 6.615730 25.307276 83.046639 22.626637 0.187588 -12.098433 1.359538 -0.043351 -1.484735 -0.947478 -15.475111 -47.384822 14.905059 168.816972 76.464668 165.686540 0.525259 -19.876557 -2.218468 0.019182 -0.021951 -0.024624
-5.616967 50.689069 29.397568 176.148123 -32.097257 -9.180173 0.768158 12.432861 3.533805 0.355542 7.116131 2.023060 0.513400 8.838252 2.534088 0.348428 7.124306 2.028496 4.981925 20.067306 0.644766 5.196611 -4.382934 -0.511758 0.153184 0.930446 -2.393913 -12.612870 -9.280473 6.197938 -28.157889 -70.367930 40.124700 7.319290 -3.863157 -11.727339 -9.366558 3.286210 -2.735283 5.709114 -1.850213 -3.321602 -82.260632 -75.550652 88.648612 12.995942 -12.812847 -1.765782 -11.910073 -33.123729 6.501521 25.257626 83.094747 22.568199 0.330840 -12.658743 1.487298 -0.051786 -0.887927 -0.934705 -15.502618 -47.438184 14.913572 168.688053 76.455729 165.582783 0.495384 -19.865199 -2.231271 0.026957 -0.010579 -0.012780
-5.604470 50.684527 29.406544 176.170934 -32.028376 -9.206244 0.740399 12.432667 3.543804 0.352463 7.097054 2.028416 0.494949 8.831082 2.538370 0.359006 7.102695 2.024495 4.996274 20.071682 0.650138 5.246911 -4.307036 -0.437298 0.125227 0.939556 -2.385908 -12.598107 -9.250809 6.217569 -28.087161 -70.366658 40.038553 7.333893 -3.867614 -11.744577 -9.365046 3.275378 -2.741177 5.689503 -1.849577 -3.285541 -82.329104 -75.549046 88.739602 13.014569 -12.869620 -1.726348 -12.135687 -33.038613 6.452801 25.636950 83.112373 22.920536 0.405973 -13.178295 1.502342 -0.047461 -0.422643 -0.843854 -15.560990 -47.514081 14.957955 168.345765 76.440093 165.282444 0.423632 -19.839348 -2.257203 0.029906 -0.008710 -0.007722
-5.586408 50.686947 29.417130 176.189735 -31.966744 -9.247344 0.730164 12.423287 3.576889 0.347084 7.092353 2.033198 0.476568 8.853005 2.550541 0.355372 7.067282 2.017990 5.034438 20.101440 0.676581 5.270429 -4.295609 -0.435346 0.137705 0.915937 -2.399115 -12.623590 -9.196605 6.245310 -28.054346 -70.362182 39.996596 7.343121 -3.867960 -11.748343 -9.396533 3.267421 -2.746017 5.717061 -1.873881 -3.269533 -82.347526 -75.558204 88.777030 13.021809 -12.912345 -1.710359 -12.371522 -32.957352 6.461408 26.166758 83.108109 23.414624 0.437615 -13.639767 1.414136 -0.032825 -0.071188 -0.689414 -15.622611 -47.584846 15.029418 168.205169 76.426891 165.178692 0.391752 -19.804523 -2.274981 0.025872 -0.020234 -0.004562
-5.562496 50.701949 29.429454 176.205337 -31.913290 -9.305637 0.732736 12.418539 3.631110 0.343528 7.088502 2.039039 0.470023 8.858350 2.560446 0.342322 7.053940 2.018561 5.075895 20.133804 0.704463 5.290256 -4.282959 -0.431525 0.110172 0.908916 -2.403124 -12.628558 -9.163748 6.265617 -28.052484 -70.352018 39.997287 7.344465 -3.867756 -11.742184 -9.434994 3.254812 -2.752196 5.759858 -1.900270 -3.272617 -82.385976 -75.550001 88.817699 13.029381 -12.944923 -1.705713 -12.599891 -32.890291 6.527798 26.532364 83.102815 23.739967 0.462016 -14.011859 1.273009 -0.015347 0.169935 -0.513501 -15.694412 -47.639079 15.126497 168.099801 76.421107 165.111085 0.370571 -19.760116 -2.292461 0.014591 -0.044221 -0.004909
-5.532012 50.734987 29.449041 176.216060 -31.830252 -9.388779 0.742127 12.380994 3.711736 0.342141 7.085039 2.045634 0.468419 8.854018 2.568598 0.342147 7.085037 2.045663 5.089855 20.118971 0.697462 5.311101 -4.261504 -0.417507 0.069027 0.866714 -2.428194 -12.648512 -9.125838 6.286956 -28.071228 -70.338805 40.026532 7.340201 -3.864688 -11.730522 -9.506595 3.230610 -2.769701 5.785902 -1.966915 -3.252222 -82.376850 -75.552982 88.830649 13.047429 -12.957269 -1.708063 -12.762090 -32.912226 6.634673 26.669131 83.133064 23.895775 0.485710 -14.259823 1.126855 0.013264 0.328110 -0.391114 -15.803226 -47.722660 15.287729 168.110400 76.421436 165.159759 0.361484 -19.683069 -2.311532 0.003430 -0.093812 0.000340
-5.486543 50.801456 29.471531 176.286514 -31.747214 -9.583516 0.719589 12.347653 3.873333 0.338601 7.073025 2.051371 0.467881 8.851027 2.574913 0.343315 7.089356 2.056144 5.110933 20.131901 0.711748 5.305311 -4.271085 -0.423235 0.034346 0.863224 -2.433989 -12.650822 -9.122578 6.295694 -28.111233 -70.293394 40.046105 7.336389 -3.858409 -11.720846 -9.535435 3.224267 -2.771249 5.739448 -2.059037 -3.203363 -82.215011 -75.550452 88.726901 13.080239 -12.942224 -1.734322 -13.104365 -32.914213 6.889464 26.717145 83.178956 23.897401 0.538496 -14.546682 0.979213 0.028353 0.528856 -0.280939 -16.050236 -47.740823 15.563062 168.168137 76.459497 165.242791 0.398942 -19.572945 -2.321982 -0.036241 -0.163272 -0.016955
-5.441100 50.911589 29.491000 176.369579 -31.693061 -9.776642 0.691222 12.341286 4.025666 0.327585 7.044428 2.056384 0.467560 8.850101 2.576988 0.349080 7.105906 2.073540 5.113540 20.127546 0.706033 5.355940 -4.224892 -0.400571 0.003164 0.863966 -2.443282 -12.691814 -9.062330 6.326039 -28.123417 -70.304202 40.084441 7.345365 -3.866218 -11.709515 -9.553449 3.210285 -2.779712 5.723852 -2.118067 -3.181718 -82.069678 -75.540205 88.605465 13.082732 -12.949434 -1.778503 -13.410665 -32.943212 7.123845 26.532355 83.300908 23.692523 0.655638 -14.799458 0.873148 0.012321 0.645242 -0.196966 -16.281639 -47.700530 15.799126 168.028116 76.531308 165.130353 0.433034 -19.424538 -2.338424 -0.098797 -0.263595 -0.043067
-5.392505 51.066492 29.516690 176.487589 -31.597759 -10.008065 0.634858 12.297018 4.195093 0.319958 7.043393 2.069594 0.465785 8.845361 2.587145 0.345071 7.085889 2.070134 5.123351 20.135645 0.710958 5.409958 -4.172281 -0.392663 -0.020366 0.874206 -2.446476 -12.725064 -8.995290 6.356484 -28.110414 -70.328661 40.094538 7.367926 -3.902739 -11.685093 -9.568414 3.213678 -2.781625 5.713221 -2.184896 -3.162875 -81.903596 -75.521633 88.459045 13.103651 -12.944529 -1.803486 -13.693366 -33.058920 7.369669 26.138427 83.499985 23.345993 0.793959 -15.096757 0.773672 -0.015661 0.792341 -0.134911 -16.580366 -47.679834 16.077429 167.733350 76.632017 164.873772 0.455511 -19.142793 -2.361387 -0.178912 -0.467488 -0.075895
-5.340918 51.267736 29.543504 176.648217 -31.489640 -10.284214 0.554649 12.246517 4.386235 0.309143 7.035488 2.082261 0.463216 8.837750 2.599130 0.337564 7.071917 2.070007 5.190037 20.198955 0.740775 5.398143 -4.173762 -0.408584 -0.039182 0.880543 -2.447402 -12.727944 -8.976228 6.363924 -28.084477 -70.324256 40.064576 7.340943 -3.840579 -11.759746 -9.585717 3.237763 -2.777996 5.705973 -2.272398 -3.155661 -81.739549 -75.496108 88.310287 13.105321 -12.964963 -1.862698 -14.043754 -33.204283 7.659470 25.852768 83.733190 23.096092 0.932358 -15.350553 0.706924 -0.058623 0.897164 -0.116438 -16.957982 -47.646642 16.413569 167.606921 76.754368 164.764412 0.493552 -18.791557 -2.376691 -0.250678 -0.739429 -0.104024
-5.287759 51.504864 29.572378 176.845564 -31.354387 -10.598776 0.455405 12.179721 4.598388 0.326661 7.053731 2.091639 0.422796 8.792573 2.618376 0.333515 7.062849 2.080373 5.212666 20.232840 0.738176 5.415727 -4.141732 -0.411864 -0.078234 0.869678 -2.437745 -12.708210 -8.945342 6.349822 -28.071349 -70.346825 40.064193 7.336781 -3.813745 -11.795621 -9.615826 3.256971 -2.779713 5.705757 -2.356709 -3.155101 -81.540701 -75.485806 88.127907 13.096888 -13.001918 -1.906942 -14.427302 -33.382238 7.968450 25.749904 83.975728 23.038771 1.095023 -15.568561 0.662344 -0.166307 0.939534 -0.118784 -17.374561 -47.603077 16.750070 167.323547 76.910349 164.513736 0.577934 -18.406855 -2.393567 -0.371335 -1.028695 -0.154372
